<svg width="46" height="55" viewBox="0 0 46 55" fill="none" xmlns="http://www.w3.org/2000/svg"><path d="M30.7 41.8535C30.7 36.3327 33.89 33.7931 35.32 30.8118C36.64 28.6035 37.3 26.5056 37.3 23.1931C37.3 18.7764 35.76 16.016 33.34 13.4764C30.7 10.6056 27.18 8.72852 23 8.72852" stroke="#00A3E0" stroke-width="3" stroke-miterlimit="10" stroke-linecap="round" stroke-linejoin="round"/><path d="M15.2992 41.8535C15.2992 36.3327 12.1092 33.7931 10.6792 30.8118C9.35922 28.4931 8.69922 26.3952 8.69922 23.0827C8.69922 18.666 10.2392 15.9056 12.6592 13.366C15.2992 10.6056 18.8192 8.72852 22.9992 8.72852" stroke="#00A3E0" stroke-width="3" stroke-miterlimit="10" stroke-linecap="round" stroke-linejoin="round"/><path d="M30.6998 41.8535V45.166C30.6998 46.3806 29.7098 47.3744 28.4998 47.3744H17.4998C16.2898 47.3744 15.2998 46.3806 15.2998 45.166V41.8535H26.2998" stroke="#00A3E0" stroke-width="3" stroke-miterlimit="10" stroke-linecap="round" stroke-linejoin="round"/><path d="M17.5 47.375C17.5 50.6875 19.7 52.8958 23 52.8958C26.3 52.8958 28.5 50.6875 28.5 47.375" stroke="#00A3E0" stroke-width="3" stroke-miterlimit="10" stroke-linecap="round" stroke-linejoin="round"/><path d="M23 5.41602V2.10352" stroke="#00A3E0" stroke-width="3" stroke-miterlimit="10" stroke-linecap="round" stroke-linejoin="round"/><path d="M13.7601 7.51315L12.3301 5.08398" stroke="#00A3E0" stroke-width="3" stroke-miterlimit="10" stroke-linecap="round" stroke-linejoin="round"/><path d="M7.26926 14.3592L4.73926 12.9238" stroke="#00A3E0" stroke-width="3" stroke-miterlimit="10" stroke-linecap="round" stroke-linejoin="round"/><path d="M5.39961 23.082H2.09961" stroke="#00A3E0" stroke-width="3" stroke-miterlimit="10" stroke-linecap="round" stroke-linejoin="round"/><path d="M7.48934 32.6895L5.06934 34.1249" stroke="#00A3E0" stroke-width="3" stroke-miterlimit="10" stroke-linecap="round" stroke-linejoin="round"/><path d="M31.7998 7.29349L33.2298 4.75391" stroke="#00A3E0" stroke-width="3" stroke-miterlimit="10" stroke-linecap="round" stroke-linejoin="round"/><path d="M38.5098 13.9178L40.9298 12.4824" stroke="#00A3E0" stroke-width="3" stroke-miterlimit="10" stroke-linecap="round" stroke-linejoin="round"/><path d="M40.5996 23.082H43.8996" stroke="#00A3E0" stroke-width="3" stroke-miterlimit="10" stroke-linecap="round" stroke-linejoin="round"/><path d="M38.7295 32.248L41.2595 33.6835" stroke="#00A3E0" stroke-width="3" stroke-miterlimit="10" stroke-linecap="round" stroke-linejoin="round"/><path d="M22.9996 41.8529V34.1237L18.5996 29.707" stroke="#00A3E0" stroke-width="3" stroke-miterlimit="10" stroke-linecap="round" stroke-linejoin="round"/><path d="M23 34.1237L27.4 29.707" stroke="#00A3E0" stroke-width="3" stroke-miterlimit="10" stroke-linecap="round" stroke-linejoin="round"/></svg>
