<svg width="77" height="60" viewBox="0 0 77 60" fill="none"
     xmlns="http://www.w3.org/2000/svg">
    <path d="M26.278 50.261L3.02364 57.7624C2.28923 57.9993 1.57461 57.3503 1.73982 56.5966L7.73213 29.2566C7.81746 28.8673 8.12581 28.5659 8.51694 28.4893L26.3323 25.0037C26.4923 24.9724 26.6576 24.9807 26.8137 25.0279L43.9533 30.2097C44.0239 30.231 44.0966 30.2445 44.1702 30.2498L65.7707 31.8208C66.1665 31.8496 66.5078 32.1097 66.6406 32.4837L74.8937 55.7425C75.1247 56.3934 74.6419 57.0769 73.9513 57.0769H49.4937C49.3952 57.0769 49.2973 57.0624 49.2032 57.0338L26.8755 50.2558C26.6805 50.1966 26.472 50.1984 26.278 50.261Z"
          stroke="#00A3E0" stroke-width="3"/>
    <path d="M27.3889 24.9561L25.356 50.5714" stroke="#00A3E0"
          stroke-width="4"/>
    <path d="M55.5705 37.1538C55.5705 37.9823 56.2421 38.6538 57.0705 38.6538C57.8989 38.6538 58.5705 37.9823 58.5705 37.1538C58.5705 35.5999 59.16 34.0333 60.1925 32.3453C61.1891 30.716 62.515 29.102 63.9413 27.3657C64.0025 27.2912 64.0639 27.2165 64.1254 27.1416C65.5892 25.3588 67.1409 23.4496 68.3166 21.4243C69.5001 19.3856 70.3617 17.1335 70.3617 14.6434C70.3617 7.35448 64.4055 1.5 57.0705 1.5C49.7355 1.5 43.7793 7.35448 43.7793 14.6434C43.7793 17.1335 44.6409 19.3856 45.8244 21.4243C47.0001 23.4496 48.5518 25.3588 50.0156 27.1416C50.0772 27.2165 50.1385 27.2912 50.1997 27.3657C51.626 29.102 52.9519 30.716 53.9485 32.3453C54.981 34.0333 55.5705 35.5999 55.5705 37.1538Z"
          fill="#00A3E0" stroke="white" stroke-width="3"
          stroke-linejoin="round"/>
    <path d="M44.8721 30.2417L48.5314 57.0769" stroke="#00A3E0"
          stroke-width="4"/>
    <path d="M57.071 18.4508C59.092 18.4508 60.7303 16.8124 60.7303 14.7914C60.7303 12.7704 59.092 11.1321 57.071 11.1321C55.05 11.1321 53.4116 12.7704 53.4116 14.7914C53.4116 16.8124 55.05 18.4508 57.071 18.4508Z"
          fill="white" stroke="white" stroke-width="3"
          stroke-linejoin="round"/>
</svg>
