<svg width="964" height="522" fill="none" xmlns="http://www.w3.org/2000/svg"><path d="M962.74 521.665V56.019c0-18.632 0-23.893-2.685-31.893a34.272 34.272 0 00-20.44-20.44C931.559 1 926.353 1 907.721 1H56.019C37.387 1 32.181 1 24.126 3.685a34.272 34.272 0 00-20.44 20.44C1 32.182 1 37.388 1 56.02v465.646" stroke="url(#paint0_linear)" stroke-width="1.5" stroke-miterlimit="10"/><path d="M478 22.768a4.5 4.5 0 109 0 4.5 4.5 0 00-9 0z" fill="#F2F2F2"/><path d="M36.5 496.768v-455h891v455h-891z" fill="#fff" stroke="#E6E6E6"/><defs><linearGradient id="paint0_linear" x1="481.87" y1="1" x2="481.87" y2="521.665" gradientUnits="userSpaceOnUse"><stop stop-color="#BDBDBD"/><stop offset="1" stop-color="#CBCBCB" stop-opacity="0"/></linearGradient></defs></svg>