<svg width="61" height="66" viewBox="0 0 61 66" fill="none" xmlns="http://www.w3.org/2000/svg"><path d="M31.8246 51.8066H44.2532C52.456 51.8066 59.1674 45.0904 59.1674 36.8816V29.4191C59.1674 21.2104 52.456 14.4941 44.2532 14.4941H41.7674V8.27539L29.3389 18.2254L41.7674 28.1754V21.9566H44.2532C48.3546 21.9566 51.7103 25.3148 51.7103 29.4191V36.8816C51.7103 40.986 48.3546 44.3441 44.2532 44.3441H29.3389" stroke="#F28700" stroke-width="3" stroke-linecap="round" stroke-linejoin="round"/><path d="M1.99805 33.1504C1.99805 15.9866 9.20662 2.05664 18.0309 2.05664C19.8952 2.05664 22.7538 2.42977 24.7423 2.80289C26.1095 3.05164 27.1038 4.41977 26.7309 5.78789L23.6238 19.4691C23.3752 20.8373 22.008 21.7079 20.6409 21.3348L15.6695 20.091C14.3023 19.7179 12.8109 20.5885 12.5623 22.081C11.9409 25.5635 11.8166 29.2948 11.8166 33.1504C11.8166 37.006 12.0652 40.7373 12.5623 44.2198C12.8109 45.5879 14.178 46.5829 15.6695 46.2098L20.6409 44.966C22.008 44.5929 23.3752 45.4635 23.6238 46.8316L26.7309 60.5129C27.1038 61.881 26.1095 63.2491 24.7423 63.4979C22.6295 63.871 19.8952 64.2441 18.0309 64.2441C9.20662 64.2441 1.99805 50.3141 1.99805 33.1504Z" stroke="#F28700" stroke-width="3" stroke-linejoin="round"/></svg>
