<svg width="64" height="64" viewBox="0 0 64 64" fill="none" xmlns="http://www.w3.org/2000/svg"><path d="M41.392 25.3541V16.0638C41.392 10.9541 37.1659 6.77344 32.0007 6.77344C26.8355 6.77344 22.6094 10.9541 22.6094 16.0638V25.3541" stroke="#00A3E0" stroke-width="3" stroke-miterlimit="10" stroke-linecap="square"/><path d="M48.218 25.3535H15.7832C15.2309 25.3535 14.7832 25.8012 14.7832 26.3535V52.2245C14.7832 52.7768 15.2309 53.2245 15.7832 53.2245H48.218C48.7703 53.2245 49.218 52.7768 49.218 52.2245V26.3535C49.218 25.8012 48.7703 25.3535 48.218 25.3535Z" stroke="#00A3E0" stroke-width="3" stroke-miterlimit="10" stroke-linecap="square"/><path d="M32 41.6113V46.2565" stroke="#00A3E0" stroke-width="3" stroke-miterlimit="10" stroke-linecap="square"/><path d="M32.0003 41.6126C34.5937 41.6126 36.696 39.5329 36.696 36.9674C36.696 34.402 34.5937 32.3223 32.0003 32.3223C29.407 32.3223 27.3047 34.402 27.3047 36.9674C27.3047 39.5329 29.407 41.6126 32.0003 41.6126Z" stroke="#00A3E0" stroke-width="3" stroke-miterlimit="10" stroke-linecap="square"/></svg>
