<svg width="64" height="64" viewBox="0 0 64 64" fill="none" xmlns="http://www.w3.org/2000/svg">
<path d="M49.2916 20.8544L48.5407 20.4515C48.4005 20.3709 44.9763 18.5173 44.2153 15.2734C43.4544 12.0195 45.7072 8.82607 45.7973 8.69511L46.2979 8L47.0488 8.40296C47.189 8.48355 50.6133 10.3372 51.3742 13.581C52.1252 16.8248 49.8824 20.0284 49.7923 20.1593L49.2916 20.8544ZM46.9087 10.6394C46.408 11.5964 45.7472 13.2586 46.1077 14.8302C46.4681 16.4017 47.7998 17.5905 48.6709 18.2251C49.1715 17.2681 49.8323 15.6059 49.4719 14.0343C49.1114 12.4628 47.7798 11.2741 46.9087 10.6394Z" fill="#00A3E0"/>
<path d="M55.149 36.9829C54.6083 36.9829 54.2579 36.9426 54.2078 36.9325L53.3668 36.8318L53.3468 35.9755C53.3468 35.8043 53.2967 31.8955 55.7598 29.6591C58.2128 27.4227 62.0877 27.8458 62.2479 27.8659L63.0889 27.9667L63.109 28.823C63.109 28.9842 63.159 32.9029 60.6959 35.1394C58.9538 36.7411 56.4807 36.9829 55.149 36.9829ZM61.0964 29.7901C60.0251 29.8102 58.2529 30.0318 57.0714 31.1198C55.8899 32.1978 55.4994 33.9506 55.3693 35.0185C56.4406 34.9983 58.2128 34.7767 59.3943 33.6887C60.5658 32.6209 60.9663 30.868 61.0964 29.7901Z" fill="#00A3E0"/>
<path d="M57.0714 46.523C54.358 46.523 52.0051 44.8305 51.895 44.7499L51.2041 44.2462L51.6046 43.4907C51.6847 43.3497 53.547 39.9043 56.7711 39.1589C59.9951 38.4134 63.1691 40.68 63.2992 40.7808L63.9901 41.2845L63.5896 42.04C63.5095 42.1811 61.6472 45.6264 58.4231 46.3719C57.9726 46.4827 57.522 46.523 57.0714 46.523ZM53.8374 43.6418C54.7886 44.1455 56.4407 44.8205 57.9926 44.4679C59.5546 44.1052 60.746 42.7754 61.3768 41.899C60.4256 41.3953 58.7736 40.7203 57.2216 41.0729C55.6597 41.4356 54.4682 42.7754 53.8374 43.6418Z" fill="#00A3E0"/>
<path d="M53.3166 55.8617C52.866 55.8617 52.4055 55.8113 51.9349 55.7005C48.7108 54.945 46.8585 51.4997 46.7784 51.3485L46.3779 50.593L47.0688 50.0893C47.199 49.9886 50.3629 47.7219 53.607 48.4976C56.831 49.2531 58.6833 52.6985 58.7634 52.8496L59.1639 53.6051L58.4731 54.1088C58.3629 54.1894 56.02 55.8617 53.3166 55.8617ZM49.0112 51.2176C49.642 52.094 50.8235 53.4339 52.3854 53.7965C53.9474 54.1592 55.5995 53.4943 56.5506 52.9906C55.9199 52.1142 54.7384 50.7743 53.1764 50.4117C51.6245 50.049 49.9624 50.7139 49.0112 51.2176Z" fill="#00A3E0"/>
<path d="M53.517 28.4604L52.8462 26.6168C52.8762 26.6068 55.8199 25.4986 56.701 23.2219C57.2817 21.7209 56.8512 19.9781 56.4907 18.9606C55.5396 19.4643 54.0577 20.4616 53.477 21.9626C53.0264 23.1312 53.1165 23.8263 53.2467 24.4912L51.3343 24.8841C51.1441 23.9271 51.0439 22.829 51.6547 21.2474C52.8562 18.1345 56.5008 16.7745 56.661 16.7242L57.462 16.432L57.8524 17.1876C57.9325 17.3387 59.7048 20.8142 58.5133 23.9271C57.3218 27.0399 53.6672 28.3999 53.517 28.4604Z" fill="#00A3E0"/>
<path d="M48.3405 51.5903L46.9587 50.2001C54.7785 42.3323 55.4093 28.0574 48.2804 20.2501L49.7122 18.9203C57.5119 27.453 56.8511 43.0173 48.3405 51.5903Z" fill="#00A3E0"/>
<path d="M46.0075 47.7521H35.244V45.7977H44.065V23.5744H18.9837V45.7977H27.8147V47.7521H17.0312V21.61H46.0075V47.7521Z" fill="#00A3E0"/>
<path d="M14.7084 20.8544L14.2077 20.1593C14.1076 20.0284 11.8648 16.8248 12.6257 13.581C13.3867 10.3372 16.801 8.47348 16.9512 8.40296L17.7021 8L18.2027 8.69511C18.3028 8.82607 20.5457 12.0195 19.7947 15.2734C19.0338 18.5173 15.6195 20.381 15.4693 20.4515L14.7084 20.8544ZM14.5181 14.0343C14.1577 15.5958 14.8285 17.258 15.3191 18.215C16.1902 17.5804 17.5119 16.3917 17.8823 14.8201C18.2428 13.2586 17.5719 11.5964 17.0813 10.6394C16.2102 11.2741 14.8886 12.4628 14.5181 14.0343Z" fill="#00A3E0"/>
<path d="M8.85105 36.983C7.51938 36.983 5.0563 36.7412 3.30411 35.1495C0.841033 32.903 0.881083 28.9943 0.891096 28.8331L0.911121 27.9768L1.75217 27.8761C1.91237 27.8559 5.78722 27.4328 8.24028 29.6692C10.6933 31.9057 10.6533 35.8245 10.6533 35.9857L10.6333 36.8419L9.79222 36.9427C9.74216 36.9427 9.38171 36.983 8.85105 36.983ZM2.90361 29.7901C3.03377 30.858 3.42426 32.6109 4.61575 33.6888C5.79723 34.7667 7.56944 34.9883 8.64078 35.0185C8.51062 33.9507 8.12013 32.1978 6.93866 31.1199C5.74717 30.042 3.97495 29.8204 2.90361 29.7901Z" fill="#00A3E0"/>
<path d="M6.92866 46.5835C6.48811 46.5835 6.02753 46.5332 5.57697 46.4324C2.34293 45.6769 0.480601 42.2416 0.400501 42.1006L0 41.345L0.690864 40.8413C0.821026 40.7406 3.99499 38.4739 7.21902 39.2194C10.4531 39.9649 12.3154 43.4001 12.3855 43.5512L12.786 44.3068L12.0951 44.8105C11.985 44.8911 9.63204 46.5835 6.92866 46.5835ZM2.62328 41.9495C3.25407 42.8158 4.44556 44.1557 6.00751 44.5183C7.56946 44.881 9.22153 44.2061 10.1627 43.6923C9.53191 42.8259 8.34043 41.4861 6.77847 41.1234C5.22653 40.7708 3.57447 41.4458 2.62328 41.9495Z" fill="#00A3E0"/>
<path d="M10.6332 55.8616C7.93983 55.8616 5.58689 54.1893 5.47675 54.1087L4.78589 53.605L5.18639 52.8495C5.26649 52.7084 7.10879 49.2631 10.3428 48.4975C13.5669 47.742 16.7508 49.9985 16.881 50.0892L17.5719 50.5929L17.1714 51.3485C17.0913 51.4895 15.249 54.9449 12.0149 55.7004C11.5543 55.8112 11.0838 55.8616 10.6332 55.8616ZM7.40917 52.9905C8.36036 53.4942 10.0124 54.1591 11.5744 53.7964C13.1363 53.4338 14.3178 52.0939 14.9486 51.2175C13.9974 50.7138 12.3453 50.0489 10.7834 50.4116C9.22143 50.7742 8.03996 52.1141 7.40917 52.9905Z" fill="#00A3E0"/>
<path d="M10.4832 28.4603C10.333 28.3999 6.67841 27.0399 5.47691 23.9371C4.27541 20.8242 6.05763 17.3487 6.13773 17.1976L6.52822 16.442L7.32922 16.7342C7.47941 16.7946 11.134 18.1546 12.3355 21.2574C12.9262 22.7886 12.9863 23.5845 12.6359 24.9646L10.7535 24.471C10.9938 23.5543 10.9938 23.1916 10.5232 21.9626C9.94249 20.4615 8.46064 19.4642 7.50945 18.9605C7.149 19.978 6.71846 21.7208 7.29919 23.2218C8.17027 25.4683 11.114 26.5966 11.144 26.6168L10.4832 28.4603Z" fill="#00A3E0"/>
<path d="M15.6595 51.5902C7.14887 43.0273 6.48805 27.4529 14.2778 18.9303L15.7096 20.2601C8.58066 28.0674 9.21145 42.3322 17.0312 50.2101L15.6595 51.5902Z" fill="#00A3E0"/>
<path d="M35.3241 57H34.0625L33.7922 56.8489L31.5194 55.3982L29.0363 57H27.7747L27.7146 56.0228V48.8702H29.667V54.2699L31.5194 53.0711L33.3717 54.2598V48.8702H35.3241V57Z" fill="#00A3E0"/>
<path d="M31.5293 50.7642C29.3366 50.7642 27.304 49.3639 26.5931 47.1577C26.1626 45.8279 26.2727 44.4175 26.9035 43.1784C27.5343 41.9393 28.6056 41.0125 29.9273 40.5793C31.2489 40.1461 32.6507 40.257 33.8822 40.8916C35.1138 41.5263 36.0349 42.6042 36.4555 43.934C36.886 45.2637 36.7759 46.6741 36.1451 47.9132C35.5143 49.1523 34.4429 50.0791 33.1213 50.5123C32.5906 50.6836 32.06 50.7642 31.5293 50.7642ZM28.4354 46.5532C28.9861 48.2658 30.8184 49.2027 32.5205 48.6486C33.3416 48.3766 34.0124 47.8024 34.4029 47.0267C34.7934 46.251 34.8635 45.3645 34.5931 44.5384C34.3228 43.7123 33.7521 43.0374 32.9811 42.6445C32.2101 42.2516 31.3391 42.1811 30.508 42.4531C29.687 42.7251 29.0162 43.2993 28.6257 44.075C28.2452 44.8406 28.1751 45.7272 28.4354 46.5532Z" fill="#00A3E0"/>
<path d="M40.791 29.4778H22.2478V31.4422H40.791V29.4778Z" fill="#00A3E0"/>
<path d="M37.0062 34.9781H26.0425V36.9426H37.0062V34.9781Z" fill="#00A3E0"/>
</svg>
