<svg width="49" height="56" viewBox="0 0 49 56" fill="none" xmlns="http://www.w3.org/2000/svg"><path d="M28.1969 8.66332C28.5793 8.01005 28.7705 7.29146 28.7705 6.44221C28.7705 5.20101 28.3244 4.15578 27.4958 3.30653C26.6671 2.45729 25.6473 2 24.4363 2C23.2252 2 22.2054 2.45729 21.4405 3.30653C20.6119 4.15578 20.1657 5.20101 20.1657 6.44221C20.1657 7.29146 20.3569 8.01005 20.7394 8.66332L10.0949 15C9.90368 14.6734 9.64873 14.3467 9.39377 14.0854C8.56516 13.2362 7.54533 12.7789 6.33428 12.7789C5.12323 12.7789 4.1034 13.2362 3.27479 14.0854C2.44618 14.9347 2 15.9799 2 17.2211C2 18.4623 2.44618 19.5075 3.27479 20.3568C4.1034 21.206 5.12323 21.6633 6.33428 21.6633V34.402C5.12323 34.402 4.1034 34.8593 3.27479 35.7085C2.44618 36.5578 2 37.603 2 38.8442C2 40.0854 2.44618 41.1307 3.27479 41.9799C4.1034 42.8291 5.12323 43.2864 6.33428 43.2864C7.54533 43.2864 8.56516 42.8291 9.39377 41.9799C9.64873 41.7186 9.90368 41.392 10.0949 41.0653L20.7394 47.3367C20.3569 47.99 20.1657 48.7085 20.1657 49.5578C20.1657 50.799 20.6119 51.8442 21.4405 52.6935C22.2691 53.5427 23.289 54 24.5 54C25.7111 54 26.7309 53.5427 27.5595 52.6935C28.3881 51.8442 28.8343 50.799 28.8343 49.5578C28.8343 48.7739 28.6431 47.99 28.2606 47.3367L38.9051 41C39.0963 41.3266 39.3513 41.6533 39.6062 41.9146C40.4348 42.7638 41.4547 43.2211 42.6657 43.2211C43.8768 43.2211 44.8966 42.7638 45.7252 41.9146C46.5538 41.0653 47 40.0201 47 38.7789C47 37.5377 46.5538 36.4925 45.7252 35.6432C44.8966 34.794 43.8768 34.3367 42.6657 34.3367V21.6633M28.1969 8.66332L38.9051 15C39.0963 14.6734 39.3513 14.3467 39.6062 14.0854C40.4348 13.2362 41.4547 12.7789 42.6657 12.7789C43.8768 12.7789 44.8966 13.2362 45.7252 14.0854C46.5538 14.9347 47 15.9799 47 17.2211C47 18.4623 46.5538 19.5075 45.7252 20.3568C44.8966 21.206 43.8768 21.6633 42.6657 21.6633M28.1969 8.66332C28.0057 8.98995 27.7507 9.31658 27.4958 9.57789C26.6671 10.4271 25.6473 10.8844 24.4363 10.8844C23.2252 10.8844 22.2054 10.4271 21.3768 9.57789C21.1218 9.31658 20.8669 8.98995 20.6756 8.66332L10.0312 15C10.4136 15.6533 10.6048 16.4372 10.6048 17.2211C10.6048 18.0704 10.4136 18.7889 10.0312 19.4422C9.83994 19.7688 9.58499 20.0955 9.33003 20.3568C8.50142 21.206 7.48159 21.6633 6.27054 21.6633L7.97403 21.3153L9.63975 20.0063L21.2244 25.1652M42.6657 21.6633C41.4547 21.6633 40.4348 21.206 39.6062 20.3568C39.3513 20.0955 39.0963 19.7688 38.9051 19.4422M6.27054 34.2714C7.48159 34.2714 8.50142 34.7286 9.33003 35.5779C9.75496 36.0019 10.6048 37.2228 10.6048 38.7136C10.6048 39.5628 10.4136 40.2814 10.0312 40.9347M27.4958 24.799L38.9051 19.3769C38.5227 18.7236 38.3314 18.005 38.3314 17.1558C38.3314 16.3065 38.5227 15.5879 38.9051 14.9347M27.4958 24.799C26.6671 23.9497 25.6473 23.4925 24.4363 23.4925C23.2252 23.4925 22.053 24.3159 21.2244 25.1652M27.4958 24.799C28.3244 25.6482 28.7705 26.6935 28.7705 27.9347C28.7705 29.1759 28.3244 30.2211 27.4958 31.0704C26.6671 31.9196 25.6473 32.3769 24.4363 32.3769C23.2252 32.3769 22.2054 31.9196 21.3768 31.0704C20.5482 30.2211 20.102 29.1759 20.102 27.9347C20.102 26.6935 20.3958 26.0797 21.2244 25.1652M38.8414 36.5578C39.0326 36.2312 39.2875 35.9045 39.5425 35.6432C40.3711 34.794 41.3909 34.3367 42.602 34.3367M24.5 32.3765V45.0503C25.7111 45.0503 26.7309 45.5075 27.5595 46.3568C27.8145 46.6181 28.0694 46.9447 28.2606 47.2714M38.9051 40.9347C38.5227 40.2814 38.3314 39.5628 38.3314 38.7136C38.3314 37.8643 38.5227 37.1457 38.9051 36.4925M24.4363 45.0503C23.2252 45.0503 22.2054 45.5075 21.3768 46.3568C21.1218 46.6181 20.8669 46.9447 20.6756 47.2714" stroke="#00A3E0" stroke-width="2.5" stroke-miterlimit="3" stroke-linecap="round" stroke-linejoin="round"></path></svg>
