<svg width="64" height="64" viewBox="0 0 64 64" fill="none" xmlns="http://www.w3.org/2000/svg">
<path d="M25.0341 59.7334L17.5056 47.0667L25.0341 34.4H40.0912L47.6197 47.0667L40.0912 59.7334H25.0341Z" stroke="#00A3E0" stroke-width="3" stroke-miterlimit="10"/>
<path d="M33.4898 41.9514C33.1807 41.0297 31.8713 41.0464 31.5858 41.9757L30.9791 43.9507C30.8501 44.3705 30.4623 44.657 30.0232 44.657H27.8538C26.9082 44.657 26.4908 45.8481 27.2296 46.4383L29.0242 47.872C29.3407 48.1249 29.4734 48.5438 29.3601 48.9328L28.7111 51.1627C28.4438 52.081 29.4944 52.8145 30.2644 52.2473L31.8536 51.0764C32.1995 50.8216 32.6694 50.8162 33.0211 51.0629L34.847 52.3439C35.6237 52.8888 36.6517 52.1468 36.3791 51.238L35.6921 48.9472C35.5733 48.5512 35.7105 48.1228 36.0374 47.8695L37.7481 46.5437C38.4952 45.9647 38.0964 44.7683 37.1514 44.7534L35.1224 44.7213C34.6985 44.7146 34.3249 44.4413 34.1901 44.0394L33.4898 41.9514Z" fill="#00A3E0"/>
<path d="M32.5625 34.4001V28.0667L18.7603 21.7334L25.034 5.26672H40.0911L46.3648 21.7334L32.5625 28.0667" stroke="#00A3E0" stroke-width="3" stroke-miterlimit="10"/>
<path d="M25.0342 6.53345L32.5627 28.0668" stroke="#00A3E0" stroke-width="3" stroke-miterlimit="10"/>
</svg>
